<svg xmlns="http://www.w3.org/2000/svg" viewBox="0 0 32 32" shape-rendering="crispEdges">
  <!-- Background -->
  <rect width="32" height="32" fill="#000924" rx="4"/>
  <!-- Planet -->
  <rect x="12" y="12" width="8" height="8" fill="#228399"/>
  <rect x="14" y="10" width="4" height="2" fill="#228399"/>
  <rect x="14" y="20" width="4" height="2" fill="#228399"/>
  <rect x="10" y="14" width="2" height="4" fill="#228399"/>
  <rect x="20" y="14" width="2" height="4" fill="#228399"/>
  <!-- Planet highlight -->
  <rect x="13" y="13" width="2" height="2" fill="#31b0b0"/>
  <rect x="15" y="12" width="1" height="1" fill="#31b0b0"/>
  <rect x="12" y="15" width="1" height="1" fill="#31b0b0"/>
  <!-- Planet shadow -->
  <rect x="17" y="17" width="2" height="2" fill="#145d87"/>
  <rect x="19" y="15" width="1" height="1" fill="#145d87"/>
  <!-- Orbit ring (dashed) -->
  <rect x="14" y="5" width="2" height="1" fill="#093659"/>
  <rect x="18" y="6" width="1" height="1" fill="#093659"/>
  <rect x="22" y="8" width="1" height="1" fill="#093659"/>
  <rect x="24" y="11" width="1" height="1" fill="#093659"/>
  <rect x="25" y="14" width="1" height="2" fill="#093659"/>
  <rect x="24" y="19" width="1" height="1" fill="#093659"/>
  <rect x="22" y="22" width="1" height="1" fill="#093659"/>
  <rect x="18" y="24" width="1" height="1" fill="#093659"/>
  <rect x="14" y="25" width="2" height="1" fill="#093659"/>
  <rect x="11" y="24" width="1" height="1" fill="#093659"/>
  <rect x="8" y="22" width="1" height="1" fill="#093659"/>
  <rect x="6" y="19" width="1" height="1" fill="#093659"/>
  <rect x="5" y="14" width="1" height="2" fill="#093659"/>
  <rect x="6" y="11" width="1" height="1" fill="#093659"/>
  <rect x="8" y="8" width="1" height="1" fill="#093659"/>
  <rect x="11" y="6" width="1" height="1" fill="#093659"/>
  <!-- Satellite -->
  <rect x="6" y="10" width="3" height="3" fill="#d9ffe2"/>
  <rect x="7" y="11" width="1" height="1" fill="#228399"/>
  <!-- Satellite panels -->
  <rect x="5" y="11" width="1" height="1" fill="#46cfb3"/>
  <rect x="9" y="11" width="1" height="1" fill="#46cfb3"/>
  <!-- Stars -->
  <rect x="3" y="3" width="1" height="1" fill="#abffd1"/>
  <rect x="27" y="5" width="1" height="1" fill="#73f0c6"/>
  <rect x="4" y="26" width="1" height="1" fill="#abffd1"/>
  <rect x="26" y="24" width="1" height="1" fill="#73f0c6"/>
  <rect x="24" y="3" width="1" height="1" fill="#abffd1"/>
</svg>
